<svg width="108" height="16" viewBox="0 0 108 16" fill="none" xmlns="http://www.w3.org/2000/svg">
<g opacity="0.7">
<rect x="13.0676" y="4.87506" width="11.6506" height="3.21396" transform="rotate(135 13.0676 4.87506)" fill="#212121"/>
<path d="M14.2035 1.4662C14.8311 2.09377 14.8311 3.11125 14.2035 3.73881L13.6354 4.30697L11.3628 2.03436L11.9309 1.4662C12.5585 0.83864 13.576 0.83864 14.2035 1.4662Z" fill="#212121"/>
<path d="M1.54021 13.4837L2.55674 10.8408L4.82935 13.1134L2.18637 14.1299C1.782 14.2854 1.38468 13.8881 1.54021 13.4837Z" fill="#212121"/>
<path d="M26.3641 4.352V7.616H30.2041V9.104H26.3641V12.512H30.6841V14H24.5401V2.864H30.6841V4.352H26.3641ZM32.3227 9.552C32.3227 8.66667 32.504 7.88267 32.8667 7.2C33.24 6.51733 33.7414 5.98933 34.3707 5.616C35.0107 5.232 35.72 5.04 36.4987 5.04C37.0747 5.04 37.64 5.168 38.1947 5.424C38.76 5.66933 39.208 6 39.5387 6.416V2.16H41.3787V14H39.5387V12.672C39.24 13.0987 38.824 13.4507 38.2907 13.728C37.768 14.0053 37.1654 14.144 36.4827 14.144C35.7147 14.144 35.0107 13.952 34.3707 13.568C33.7414 13.1733 33.24 12.6293 32.8667 11.936C32.504 11.232 32.3227 10.4373 32.3227 9.552ZM39.5387 9.584C39.5387 8.976 39.4107 8.448 39.1547 8C38.9094 7.552 38.584 7.21067 38.1787 6.976C37.7734 6.74133 37.336 6.624 36.8667 6.624C36.3974 6.624 35.96 6.74133 35.5547 6.976C35.1494 7.2 34.8187 7.536 34.5627 7.984C34.3174 8.42133 34.1947 8.944 34.1947 9.552C34.1947 10.16 34.3174 10.6933 34.5627 11.152C34.8187 11.6107 35.1494 11.9627 35.5547 12.208C35.9707 12.4427 36.408 12.56 36.8667 12.56C37.336 12.56 37.7734 12.4427 38.1787 12.208C38.584 11.9733 38.9094 11.632 39.1547 11.184C39.4107 10.7253 39.5387 10.192 39.5387 9.584ZM44.7025 4.016C44.3718 4.016 44.0945 3.904 43.8705 3.68C43.6465 3.456 43.5345 3.17867 43.5345 2.848C43.5345 2.51733 43.6465 2.24 43.8705 2.016C44.0945 1.792 44.3718 1.68 44.7025 1.68C45.0225 1.68 45.2945 1.792 45.5185 2.016C45.7425 2.24 45.8545 2.51733 45.8545 2.848C45.8545 3.17867 45.7425 3.456 45.5185 3.68C45.2945 3.904 45.0225 4.016 44.7025 4.016ZM45.5985 5.184V14H43.7745V5.184H45.5985ZM50.1212 6.672V11.552C50.1212 11.8827 50.1959 12.1227 50.3452 12.272C50.5052 12.4107 50.7719 12.48 51.1452 12.48H52.2652V14H50.8252C50.0039 14 49.3745 13.808 48.9372 13.424C48.4999 13.04 48.2812 12.416 48.2812 11.552V6.672H47.2412V5.184H48.2812V2.992H50.1212V5.184H52.2652V6.672H50.1212ZM65.8786 6.192C65.8786 6.75733 65.7453 7.29067 65.4786 7.792C65.2119 8.29333 64.7853 8.704 64.1986 9.024C63.6119 9.33333 62.8599 9.488 61.9426 9.488H59.9266V14H58.1026V2.88H61.9426C62.7959 2.88 63.5159 3.02933 64.1026 3.328C64.6999 3.616 65.1426 4.01067 65.4306 4.512C65.7293 5.01333 65.8786 5.57333 65.8786 6.192ZM61.9426 8C62.6359 8 63.1533 7.84533 63.4946 7.536C63.8359 7.216 64.0066 6.768 64.0066 6.192C64.0066 4.976 63.3186 4.368 61.9426 4.368H59.9266V8H61.9426ZM69.4422 6.464C69.7089 6.016 70.0609 5.66933 70.4982 5.424C70.9462 5.168 71.4742 5.04 72.0822 5.04V6.928H71.6182C70.9035 6.928 70.3595 7.10933 69.9862 7.472C69.6235 7.83467 69.4422 8.464 69.4422 9.36V14H67.6182V5.184H69.4422V6.464ZM77.5828 14.144C76.7508 14.144 75.9988 13.9573 75.3268 13.584C74.6548 13.2 74.1268 12.6667 73.7428 11.984C73.3588 11.2907 73.1668 10.4907 73.1668 9.584C73.1668 8.688 73.3642 7.89333 73.7588 7.2C74.1535 6.50667 74.6922 5.97333 75.3748 5.6C76.0575 5.22667 76.8202 5.04 77.6628 5.04C78.5055 5.04 79.2682 5.22667 79.9508 5.6C80.6335 5.97333 81.1722 6.50667 81.5668 7.2C81.9615 7.89333 82.1588 8.688 82.1588 9.584C82.1588 10.48 81.9562 11.2747 81.5508 11.968C81.1455 12.6613 80.5908 13.2 79.8868 13.584C79.1935 13.9573 78.4255 14.144 77.5828 14.144ZM77.5828 12.56C78.0522 12.56 78.4895 12.448 78.8948 12.224C79.3108 12 79.6468 11.664 79.9028 11.216C80.1588 10.768 80.2868 10.224 80.2868 9.584C80.2868 8.944 80.1642 8.40533 79.9188 7.968C79.6735 7.52 79.3482 7.184 78.9428 6.96C78.5375 6.736 78.1002 6.624 77.6308 6.624C77.1615 6.624 76.7242 6.736 76.3188 6.96C75.9242 7.184 75.6095 7.52 75.3748 7.968C75.1402 8.40533 75.0228 8.944 75.0228 9.584C75.0228 10.5333 75.2628 11.2693 75.7428 11.792C76.2335 12.304 76.8468 12.56 77.5828 12.56ZM87.658 6.672H86.026V14H84.186V6.672H83.146V5.184H84.186V4.56C84.186 3.54667 84.4526 2.81067 84.986 2.352C85.53 1.88267 86.378 1.648 87.53 1.648V3.168C86.9753 3.168 86.586 3.27467 86.362 3.488C86.138 3.69067 86.026 4.048 86.026 4.56V5.184H87.658V6.672ZM90.2025 4.016C89.8718 4.016 89.5945 3.904 89.3705 3.68C89.1465 3.456 89.0345 3.17867 89.0345 2.848C89.0345 2.51733 89.1465 2.24 89.3705 2.016C89.5945 1.792 89.8718 1.68 90.2025 1.68C90.5225 1.68 90.7945 1.792 91.0185 2.016C91.2425 2.24 91.3545 2.51733 91.3545 2.848C91.3545 3.17867 91.2425 3.456 91.0185 3.68C90.7945 3.904 90.5225 4.016 90.2025 4.016ZM91.0985 5.184V14H89.2745V5.184H91.0985ZM95.3172 2.16V14H93.4932V2.16H95.3172ZM105.792 9.376C105.792 9.70667 105.771 10.0053 105.728 10.272H98.992C99.0453 10.976 99.3066 11.5413 99.776 11.968C100.245 12.3947 100.821 12.608 101.504 12.608C102.485 12.608 103.179 12.1973 103.584 11.376H105.552C105.285 12.1867 104.8 12.8533 104.096 13.376C103.403 13.888 102.539 14.144 101.504 14.144C100.661 14.144 99.904 13.9573 99.232 13.584C98.5706 13.2 98.048 12.6667 97.664 11.984C97.2906 11.2907 97.104 10.4907 97.104 9.584C97.104 8.67733 97.2853 7.88267 97.648 7.2C98.0213 6.50667 98.5386 5.97333 99.2 5.6C99.872 5.22667 100.64 5.04 101.504 5.04C102.336 5.04 103.077 5.22133 103.728 5.584C104.379 5.94667 104.885 6.45867 105.248 7.12C105.611 7.77067 105.792 8.52267 105.792 9.376ZM103.888 8.8C103.877 8.128 103.637 7.58933 103.168 7.184C102.699 6.77867 102.117 6.576 101.424 6.576C100.795 6.576 100.256 6.77867 99.808 7.184C99.36 7.57867 99.0933 8.11733 99.008 8.8H103.888Z" fill="#212121"/>
</g>
</svg>
