<svg width="95" height="26" viewBox="0 0 95 26" fill="none" xmlns="http://www.w3.org/2000/svg">
<mask id="path-1-outside-1_2_219" maskUnits="userSpaceOnUse" x="18.9407" y="4.76001" width="75" height="16" fill="black">
<rect fill="white" x="18.9407" y="4.76001" width="75" height="16"/>
<path d="M24.9207 20.24C23.934 20.24 23.0673 20.06 22.3207 19.7C21.5873 19.34 21.0073 18.8267 20.5807 18.16C20.1673 17.4933 19.954 16.7 19.9407 15.78H22.1807C22.194 16.4867 22.434 17.0933 22.9007 17.6C23.3807 18.0933 24.0473 18.34 24.9007 18.34C25.6873 18.34 26.3007 18.16 26.7407 17.8C27.1807 17.4267 27.4007 16.9467 27.4007 16.36C27.4007 15.8667 27.2673 15.46 27.0007 15.14C26.7473 14.8067 26.3473 14.5133 25.8007 14.26C25.254 13.9933 24.5473 13.72 23.6807 13.44C22.5207 13.0667 21.6673 12.5533 21.1207 11.9C20.574 11.2333 20.3007 10.42 20.3007 9.46001C20.3007 8.35334 20.7007 7.46001 21.5007 6.78001C22.3007 6.10001 23.4007 5.76001 24.8007 5.76001C26.1607 5.76001 27.254 6.11334 28.0807 6.82001C28.9073 7.51334 29.334 8.48001 29.3607 9.72001H27.1007C27.1007 9.38668 27.0073 9.06668 26.8207 8.76001C26.634 8.44001 26.3673 8.18001 26.0207 7.98001C25.674 7.76668 25.2473 7.66001 24.7407 7.66001C24.114 7.64668 23.5873 7.80001 23.1607 8.12001C22.734 8.42668 22.5207 8.84668 22.5207 9.38001C22.5207 10.0333 22.7807 10.5467 23.3007 10.92C23.8207 11.28 24.6673 11.6533 25.8407 12.04C26.574 12.28 27.2207 12.5733 27.7807 12.92C28.354 13.2533 28.8007 13.6867 29.1207 14.22C29.454 14.74 29.6207 15.4067 29.6207 16.22C29.6207 16.9667 29.434 17.6467 29.0607 18.26C28.6873 18.86 28.1473 19.34 27.4407 19.7C26.7473 20.06 25.9073 20.24 24.9207 20.24Z"/>
<path d="M36.1929 20V6.00001H40.9329C41.9995 6.00001 42.8795 6.18668 43.5729 6.56001C44.2662 6.92001 44.7795 7.42001 45.1129 8.06001C45.4462 8.70001 45.6129 9.43334 45.6129 10.26C45.6129 11.0867 45.4462 11.82 45.1129 12.46C44.7795 13.1 44.2662 13.6067 43.5729 13.98C42.8795 14.34 41.9995 14.52 40.9329 14.52H38.3129V20H36.1929ZM38.3129 12.62H40.8329C41.7395 12.62 42.3995 12.4067 42.8129 11.98C43.2395 11.5533 43.4529 10.98 43.4529 10.26C43.4529 9.55334 43.2395 8.98668 42.8129 8.56001C42.3995 8.12001 41.7395 7.90001 40.8329 7.90001H38.3129V12.62Z"/>
<path d="M56.765 20.24C55.6317 20.24 54.6517 19.9467 53.8251 19.36C52.9984 18.7733 52.365 17.94 51.925 16.86C51.485 15.78 51.265 14.4933 51.265 13C51.265 11.5067 51.485 10.22 51.925 9.14001C52.365 8.06001 52.9984 7.22668 53.8251 6.64001C54.6517 6.05334 55.6317 5.76001 56.765 5.76001C57.9117 5.76001 58.8917 6.05334 59.705 6.64001C60.5317 7.22668 61.165 8.06001 61.605 9.14001C62.045 10.22 62.265 11.5067 62.265 13C62.265 14.4933 62.045 15.78 61.605 16.86C61.165 17.94 60.5317 18.7733 59.705 19.36C58.8917 19.9467 57.9117 20.24 56.765 20.24ZM56.765 18.24C57.765 18.24 58.5717 17.7933 59.1851 16.9C59.7984 15.9933 60.105 14.6933 60.105 13C60.105 11.3067 59.7984 10.0133 59.1851 9.12001C58.5717 8.21334 57.765 7.76001 56.765 7.76001C55.7517 7.76001 54.9384 8.21334 54.3251 9.12001C53.7251 10.0133 53.425 11.3067 53.425 13C53.425 14.6933 53.7251 15.9933 54.3251 16.9C54.9384 17.7933 55.7517 18.24 56.765 18.24Z"/>
<path d="M71.6972 20V7.90001H67.9372V6.00001H77.5772V7.90001H73.8172V20H71.6972Z"/>
<path d="M88.8894 20.24C87.9028 20.24 87.0361 20.06 86.2894 19.7C85.5561 19.34 84.9761 18.8267 84.5494 18.16C84.1361 17.4933 83.9228 16.7 83.9094 15.78H86.1494C86.1628 16.4867 86.4028 17.0933 86.8694 17.6C87.3494 18.0933 88.0161 18.34 88.8694 18.34C89.6561 18.34 90.2694 18.16 90.7094 17.8C91.1494 17.4267 91.3694 16.9467 91.3694 16.36C91.3694 15.8667 91.2361 15.46 90.9694 15.14C90.7161 14.8067 90.3161 14.5133 89.7694 14.26C89.2228 13.9933 88.5161 13.72 87.6494 13.44C86.4894 13.0667 85.6361 12.5533 85.0894 11.9C84.5428 11.2333 84.2694 10.42 84.2694 9.46001C84.2694 8.35334 84.6694 7.46001 85.4694 6.78001C86.2694 6.10001 87.3694 5.76001 88.7694 5.76001C90.1294 5.76001 91.2228 6.11334 92.0494 6.82001C92.8761 7.51334 93.3028 8.48001 93.3294 9.72001H91.0694C91.0694 9.38668 90.9761 9.06668 90.7894 8.76001C90.6028 8.44001 90.3361 8.18001 89.9894 7.98001C89.6428 7.76668 89.2161 7.66001 88.7094 7.66001C88.0828 7.64668 87.5561 7.80001 87.1294 8.12001C86.7028 8.42668 86.4894 8.84668 86.4894 9.38001C86.4894 10.0333 86.7494 10.5467 87.2694 10.92C87.7894 11.28 88.6361 11.6533 89.8094 12.04C90.5428 12.28 91.1894 12.5733 91.7494 12.92C92.3228 13.2533 92.7694 13.6867 93.0894 14.22C93.4228 14.74 93.5894 15.4067 93.5894 16.22C93.5894 16.9667 93.4028 17.6467 93.0294 18.26C92.6561 18.86 92.1161 19.34 91.4094 19.7C90.7161 20.06 89.8761 20.24 88.8894 20.24Z"/>
</mask>
<path d="M24.9207 20.24C23.934 20.24 23.0673 20.06 22.3207 19.7C21.5873 19.34 21.0073 18.8267 20.5807 18.16C20.1673 17.4933 19.954 16.7 19.9407 15.78H22.1807C22.194 16.4867 22.434 17.0933 22.9007 17.6C23.3807 18.0933 24.0473 18.34 24.9007 18.34C25.6873 18.34 26.3007 18.16 26.7407 17.8C27.1807 17.4267 27.4007 16.9467 27.4007 16.36C27.4007 15.8667 27.2673 15.46 27.0007 15.14C26.7473 14.8067 26.3473 14.5133 25.8007 14.26C25.254 13.9933 24.5473 13.72 23.6807 13.44C22.5207 13.0667 21.6673 12.5533 21.1207 11.9C20.574 11.2333 20.3007 10.42 20.3007 9.46001C20.3007 8.35334 20.7007 7.46001 21.5007 6.78001C22.3007 6.10001 23.4007 5.76001 24.8007 5.76001C26.1607 5.76001 27.254 6.11334 28.0807 6.82001C28.9073 7.51334 29.334 8.48001 29.3607 9.72001H27.1007C27.1007 9.38668 27.0073 9.06668 26.8207 8.76001C26.634 8.44001 26.3673 8.18001 26.0207 7.98001C25.674 7.76668 25.2473 7.66001 24.7407 7.66001C24.114 7.64668 23.5873 7.80001 23.1607 8.12001C22.734 8.42668 22.5207 8.84668 22.5207 9.38001C22.5207 10.0333 22.7807 10.5467 23.3007 10.92C23.8207 11.28 24.6673 11.6533 25.8407 12.04C26.574 12.28 27.2207 12.5733 27.7807 12.92C28.354 13.2533 28.8007 13.6867 29.1207 14.22C29.454 14.74 29.6207 15.4067 29.6207 16.22C29.6207 16.9667 29.434 17.6467 29.0607 18.26C28.6873 18.86 28.1473 19.34 27.4407 19.7C26.7473 20.06 25.9073 20.24 24.9207 20.24Z" fill="#212121"/>
<path d="M36.1929 20V6.00001H40.9329C41.9995 6.00001 42.8795 6.18668 43.5729 6.56001C44.2662 6.92001 44.7795 7.42001 45.1129 8.06001C45.4462 8.70001 45.6129 9.43334 45.6129 10.26C45.6129 11.0867 45.4462 11.82 45.1129 12.46C44.7795 13.1 44.2662 13.6067 43.5729 13.98C42.8795 14.34 41.9995 14.52 40.9329 14.52H38.3129V20H36.1929ZM38.3129 12.62H40.8329C41.7395 12.62 42.3995 12.4067 42.8129 11.98C43.2395 11.5533 43.4529 10.98 43.4529 10.26C43.4529 9.55334 43.2395 8.98668 42.8129 8.56001C42.3995 8.12001 41.7395 7.90001 40.8329 7.90001H38.3129V12.62Z" fill="#212121"/>
<path d="M56.765 20.24C55.6317 20.24 54.6517 19.9467 53.8251 19.36C52.9984 18.7733 52.365 17.94 51.925 16.86C51.485 15.78 51.265 14.4933 51.265 13C51.265 11.5067 51.485 10.22 51.925 9.14001C52.365 8.06001 52.9984 7.22668 53.8251 6.64001C54.6517 6.05334 55.6317 5.76001 56.765 5.76001C57.9117 5.76001 58.8917 6.05334 59.705 6.64001C60.5317 7.22668 61.165 8.06001 61.605 9.14001C62.045 10.22 62.265 11.5067 62.265 13C62.265 14.4933 62.045 15.78 61.605 16.86C61.165 17.94 60.5317 18.7733 59.705 19.36C58.8917 19.9467 57.9117 20.24 56.765 20.24ZM56.765 18.24C57.765 18.24 58.5717 17.7933 59.1851 16.9C59.7984 15.9933 60.105 14.6933 60.105 13C60.105 11.3067 59.7984 10.0133 59.1851 9.12001C58.5717 8.21334 57.765 7.76001 56.765 7.76001C55.7517 7.76001 54.9384 8.21334 54.3251 9.12001C53.7251 10.0133 53.425 11.3067 53.425 13C53.425 14.6933 53.7251 15.9933 54.3251 16.9C54.9384 17.7933 55.7517 18.24 56.765 18.24Z" fill="#212121"/>
<path d="M71.6972 20V7.90001H67.9372V6.00001H77.5772V7.90001H73.8172V20H71.6972Z" fill="#212121"/>
<path d="M88.8894 20.24C87.9028 20.24 87.0361 20.06 86.2894 19.7C85.5561 19.34 84.9761 18.8267 84.5494 18.16C84.1361 17.4933 83.9228 16.7 83.9094 15.78H86.1494C86.1628 16.4867 86.4028 17.0933 86.8694 17.6C87.3494 18.0933 88.0161 18.34 88.8694 18.34C89.6561 18.34 90.2694 18.16 90.7094 17.8C91.1494 17.4267 91.3694 16.9467 91.3694 16.36C91.3694 15.8667 91.2361 15.46 90.9694 15.14C90.7161 14.8067 90.3161 14.5133 89.7694 14.26C89.2228 13.9933 88.5161 13.72 87.6494 13.44C86.4894 13.0667 85.6361 12.5533 85.0894 11.9C84.5428 11.2333 84.2694 10.42 84.2694 9.46001C84.2694 8.35334 84.6694 7.46001 85.4694 6.78001C86.2694 6.10001 87.3694 5.76001 88.7694 5.76001C90.1294 5.76001 91.2228 6.11334 92.0494 6.82001C92.8761 7.51334 93.3028 8.48001 93.3294 9.72001H91.0694C91.0694 9.38668 90.9761 9.06668 90.7894 8.76001C90.6028 8.44001 90.3361 8.18001 89.9894 7.98001C89.6428 7.76668 89.2161 7.66001 88.7094 7.66001C88.0828 7.64668 87.5561 7.80001 87.1294 8.12001C86.7028 8.42668 86.4894 8.84668 86.4894 9.38001C86.4894 10.0333 86.7494 10.5467 87.2694 10.92C87.7894 11.28 88.6361 11.6533 89.8094 12.04C90.5428 12.28 91.1894 12.5733 91.7494 12.92C92.3228 13.2533 92.7694 13.6867 93.0894 14.22C93.4228 14.74 93.5894 15.4067 93.5894 16.22C93.5894 16.9667 93.4028 17.6467 93.0294 18.26C92.6561 18.86 92.1161 19.34 91.4094 19.7C90.7161 20.06 89.8761 20.24 88.8894 20.24Z" fill="#212121"/>
<path d="M24.9207 20.24C23.934 20.24 23.0673 20.06 22.3207 19.7C21.5873 19.34 21.0073 18.8267 20.5807 18.16C20.1673 17.4933 19.954 16.7 19.9407 15.78H22.1807C22.194 16.4867 22.434 17.0933 22.9007 17.6C23.3807 18.0933 24.0473 18.34 24.9007 18.34C25.6873 18.34 26.3007 18.16 26.7407 17.8C27.1807 17.4267 27.4007 16.9467 27.4007 16.36C27.4007 15.8667 27.2673 15.46 27.0007 15.14C26.7473 14.8067 26.3473 14.5133 25.8007 14.26C25.254 13.9933 24.5473 13.72 23.6807 13.44C22.5207 13.0667 21.6673 12.5533 21.1207 11.9C20.574 11.2333 20.3007 10.42 20.3007 9.46001C20.3007 8.35334 20.7007 7.46001 21.5007 6.78001C22.3007 6.10001 23.4007 5.76001 24.8007 5.76001C26.1607 5.76001 27.254 6.11334 28.0807 6.82001C28.9073 7.51334 29.334 8.48001 29.3607 9.72001H27.1007C27.1007 9.38668 27.0073 9.06668 26.8207 8.76001C26.634 8.44001 26.3673 8.18001 26.0207 7.98001C25.674 7.76668 25.2473 7.66001 24.7407 7.66001C24.114 7.64668 23.5873 7.80001 23.1607 8.12001C22.734 8.42668 22.5207 8.84668 22.5207 9.38001C22.5207 10.0333 22.7807 10.5467 23.3007 10.92C23.8207 11.28 24.6673 11.6533 25.8407 12.04C26.574 12.28 27.2207 12.5733 27.7807 12.92C28.354 13.2533 28.8007 13.6867 29.1207 14.22C29.454 14.74 29.6207 15.4067 29.6207 16.22C29.6207 16.9667 29.434 17.6467 29.0607 18.26C28.6873 18.86 28.1473 19.34 27.4407 19.7C26.7473 20.06 25.9073 20.24 24.9207 20.24Z" stroke="#212121" stroke-width="0.4" mask="url(#path-1-outside-1_2_219)"/>
<path d="M36.1929 20V6.00001H40.9329C41.9995 6.00001 42.8795 6.18668 43.5729 6.56001C44.2662 6.92001 44.7795 7.42001 45.1129 8.06001C45.4462 8.70001 45.6129 9.43334 45.6129 10.26C45.6129 11.0867 45.4462 11.82 45.1129 12.46C44.7795 13.1 44.2662 13.6067 43.5729 13.98C42.8795 14.34 41.9995 14.52 40.9329 14.52H38.3129V20H36.1929ZM38.3129 12.62H40.8329C41.7395 12.62 42.3995 12.4067 42.8129 11.98C43.2395 11.5533 43.4529 10.98 43.4529 10.26C43.4529 9.55334 43.2395 8.98668 42.8129 8.56001C42.3995 8.12001 41.7395 7.90001 40.8329 7.90001H38.3129V12.62Z" stroke="#212121" stroke-width="0.4" mask="url(#path-1-outside-1_2_219)"/>
<path d="M56.765 20.24C55.6317 20.24 54.6517 19.9467 53.8251 19.36C52.9984 18.7733 52.365 17.94 51.925 16.86C51.485 15.78 51.265 14.4933 51.265 13C51.265 11.5067 51.485 10.22 51.925 9.14001C52.365 8.06001 52.9984 7.22668 53.8251 6.64001C54.6517 6.05334 55.6317 5.76001 56.765 5.76001C57.9117 5.76001 58.8917 6.05334 59.705 6.64001C60.5317 7.22668 61.165 8.06001 61.605 9.14001C62.045 10.22 62.265 11.5067 62.265 13C62.265 14.4933 62.045 15.78 61.605 16.86C61.165 17.94 60.5317 18.7733 59.705 19.36C58.8917 19.9467 57.9117 20.24 56.765 20.24ZM56.765 18.24C57.765 18.24 58.5717 17.7933 59.1851 16.9C59.7984 15.9933 60.105 14.6933 60.105 13C60.105 11.3067 59.7984 10.0133 59.1851 9.12001C58.5717 8.21334 57.765 7.76001 56.765 7.76001C55.7517 7.76001 54.9384 8.21334 54.3251 9.12001C53.7251 10.0133 53.425 11.3067 53.425 13C53.425 14.6933 53.7251 15.9933 54.3251 16.9C54.9384 17.7933 55.7517 18.24 56.765 18.24Z" stroke="#212121" stroke-width="0.4" mask="url(#path-1-outside-1_2_219)"/>
<path d="M71.6972 20V7.90001H67.9372V6.00001H77.5772V7.90001H73.8172V20H71.6972Z" stroke="#212121" stroke-width="0.4" mask="url(#path-1-outside-1_2_219)"/>
<path d="M88.8894 20.24C87.9028 20.24 87.0361 20.06 86.2894 19.7C85.5561 19.34 84.9761 18.8267 84.5494 18.16C84.1361 17.4933 83.9228 16.7 83.9094 15.78H86.1494C86.1628 16.4867 86.4028 17.0933 86.8694 17.6C87.3494 18.0933 88.0161 18.34 88.8694 18.34C89.6561 18.34 90.2694 18.16 90.7094 17.8C91.1494 17.4267 91.3694 16.9467 91.3694 16.36C91.3694 15.8667 91.2361 15.46 90.9694 15.14C90.7161 14.8067 90.3161 14.5133 89.7694 14.26C89.2228 13.9933 88.5161 13.72 87.6494 13.44C86.4894 13.0667 85.6361 12.5533 85.0894 11.9C84.5428 11.2333 84.2694 10.42 84.2694 9.46001C84.2694 8.35334 84.6694 7.46001 85.4694 6.78001C86.2694 6.10001 87.3694 5.76001 88.7694 5.76001C90.1294 5.76001 91.2228 6.11334 92.0494 6.82001C92.8761 7.51334 93.3028 8.48001 93.3294 9.72001H91.0694C91.0694 9.38668 90.9761 9.06668 90.7894 8.76001C90.6028 8.44001 90.3361 8.18001 89.9894 7.98001C89.6428 7.76668 89.2161 7.66001 88.7094 7.66001C88.0828 7.64668 87.5561 7.80001 87.1294 8.12001C86.7028 8.42668 86.4894 8.84668 86.4894 9.38001C86.4894 10.0333 86.7494 10.5467 87.2694 10.92C87.7894 11.28 88.6361 11.6533 89.8094 12.04C90.5428 12.28 91.1894 12.5733 91.7494 12.92C92.3228 13.2533 92.7694 13.6867 93.0894 14.22C93.4228 14.74 93.5894 15.4067 93.5894 16.22C93.5894 16.9667 93.4028 17.6467 93.0294 18.26C92.6561 18.86 92.1161 19.34 91.4094 19.7C90.7161 20.06 89.8761 20.24 88.8894 20.24Z" stroke="#212121" stroke-width="0.4" mask="url(#path-1-outside-1_2_219)"/>
<path d="M5.78076 4L5.78076 12" stroke="#212121" stroke-width="2.5"/>
<path d="M0.780762 9L5.78076 13L10.7808 9" stroke="#212121" stroke-width="2.5" stroke-linejoin="bevel"/>
<circle cx="5.78076" cy="18" r="2" fill="#212121"/>
</svg>
